<svg xmlns="http://www.w3.org/2000/svg" xmlns:xlink="http://www.w3.org/1999/xlink" viewBox="0 0 571.92 384.99"><defs><style>.cls-1{fill:url(#Безымянный_градиент_33);}.cls-2{fill:#fff;}</style><linearGradient id="Безымянный_градиент_33" y1="193.66" x2="570.97" y2="193.66" gradientUnits="userSpaceOnUse"><stop offset="0" stop-color="#aaffa9"/><stop offset="1" stop-color="#11ffbd"/></linearGradient></defs><title>scoro</title><g id="Слой_2" data-name="Слой 2"><g id="Слой_1-2" data-name="Слой 1"><rect class="cls-1" y="3.66" width="570.97" height="380" rx="12" ry="12"/><path class="cls-2" d="M80.93,96.8A49.91,49.91,0,0,1,57,102.73,50.37,50.37,0,0,1,31.2,95.87,51.29,51.29,0,0,1,12.49,77.22,50,50,0,0,1,5.56,51.44a50.37,50.37,0,0,1,6.86-25.79A51.3,51.3,0,0,1,31.06,6.93,49.71,49.71,0,0,1,56.71,0,51.62,51.62,0,0,1,80.85,5.79,49.28,49.28,0,0,1,99,21.72L76.85,37.43a24,24,0,0,0-8.5-7.5A25,25,0,0,0,57,27a23.74,23.74,0,0,0-12.29,3.29,24.12,24.12,0,0,0-8.79,8.86A24.58,24.58,0,0,0,36,63.58a24.66,24.66,0,0,0,8.86,8.86A23.46,23.46,0,0,0,57,75.72,25.16,25.16,0,0,0,68.28,72.8a24.34,24.34,0,0,0,8.57-7.36L99.14,80.87A52.52,52.52,0,0,1,80.93,96.8Z"/><path class="cls-2" d="M184.73,74.72q9.86,12,24.15,26.72H173.15a153.2,153.2,0,0,1-16.57-18.5,113.44,113.44,0,0,1-12.86-20.07h-3.57v38.58H113V1.43h27.15V38.58h3.57L170.3,1.43h31.43l-34.15,49A195.15,195.15,0,0,0,184.73,74.72Z"/><path class="cls-2" d="M234.52,95.94A51.84,51.84,0,0,1,215.8,77.22a50,50,0,0,1-6.93-25.79,50,50,0,0,1,6.93-25.79A51.86,51.86,0,0,1,234.52,6.93a51.45,51.45,0,0,1,51.58,0,51.87,51.87,0,0,1,18.72,18.72,50,50,0,0,1,6.93,25.79,50,50,0,0,1-6.93,25.79A51.85,51.85,0,0,1,286.1,95.94a51.45,51.45,0,0,1-51.58,0Zm37.93-23.5a24.68,24.68,0,0,0,8.86-8.86,24.08,24.08,0,0,0,0-24.29,24.7,24.7,0,0,0-8.86-8.86,24.08,24.08,0,0,0-24.29,0,24.68,24.68,0,0,0-8.86,8.86,24.08,24.08,0,0,0,0,24.29,24.66,24.66,0,0,0,8.86,8.86,24.08,24.08,0,0,0,24.29,0Z"/><path class="cls-2" d="M389.68,6.22a35.5,35.5,0,0,1,13,13,35,35,0,0,1,4.79,17.93,35,35,0,0,1-4.79,17.93,35.47,35.47,0,0,1-13,13,35,35,0,0,1-17.93,4.79H356v28.58H328.89V1.43h42.86A35,35,0,0,1,389.68,6.22ZM377,45.22a11.38,11.38,0,0,0,0-16.15,11,11,0,0,0-8.07-3.36H356V48.58h12.86A11,11,0,0,0,377,45.22Z"/><path class="cls-2" d="M450.26,95.94a51.84,51.84,0,0,1-18.72-18.72,50,50,0,0,1-6.93-25.79,50,50,0,0,1,6.93-25.79A51.86,51.86,0,0,1,450.26,6.93a51.45,51.45,0,0,1,51.58,0,51.87,51.87,0,0,1,18.72,18.72,50,50,0,0,1,6.93,25.79,50,50,0,0,1-6.93,25.79,51.85,51.85,0,0,1-18.72,18.72,51.45,51.45,0,0,1-51.58,0Zm37.93-23.5a24.68,24.68,0,0,0,8.86-8.86,24.08,24.08,0,0,0,0-24.29,24.7,24.7,0,0,0-8.86-8.86,24.08,24.08,0,0,0-24.29,0A24.68,24.68,0,0,0,455,39.29a24.08,24.08,0,0,0,0,24.29,24.66,24.66,0,0,0,8.86,8.86,24.08,24.08,0,0,0,24.29,0Z"/><path class="cls-2" d="M554.77,71.44a17.23,17.23,0,0,0-9,2.57,21.19,21.19,0,0,0-7,6.79,16.45,16.45,0,0,0-2.71,9.07,12.54,12.54,0,0,0,3.79,9.22,12.72,12.72,0,0,0,9.36,3.79,17.61,17.61,0,0,0,9.07-2.57,21,21,0,0,0,7.07-6.79,16.23,16.23,0,0,0,2.71-8.93,12.78,12.78,0,0,0-3.71-9.43A13,13,0,0,0,554.77,71.44Z"/><polygon class="cls-2" points="571.92 1.43 552.77 1.43 543.2 64.29 568.92 64.29 571.92 49.11 571.92 1.43"/><path class="cls-2" d="M80.93,206.8A49.91,49.91,0,0,1,57,212.73a50.37,50.37,0,0,1-25.79-6.86,51.29,51.29,0,0,1-18.72-18.65,51.69,51.69,0,0,1-.07-51.58,51.3,51.3,0,0,1,18.65-18.72A49.71,49.71,0,0,1,56.71,110a51.62,51.62,0,0,1,24.15,5.79A49.28,49.28,0,0,1,99,131.72L76.85,147.43a24,24,0,0,0-8.5-7.5A25,25,0,0,0,57,137a23.74,23.74,0,0,0-12.29,3.29,24.12,24.12,0,0,0-8.79,8.86A24.58,24.58,0,0,0,36,173.58a24.66,24.66,0,0,0,8.86,8.86A23.46,23.46,0,0,0,57,185.72a25.16,25.16,0,0,0,11.29-2.93,24.34,24.34,0,0,0,8.57-7.36l22.29,15.43A52.52,52.52,0,0,1,80.93,206.8Z"/><path class="cls-2" d="M184.73,184.72q9.86,12,24.15,26.72H173.15a153.2,153.2,0,0,1-16.57-18.5,113.44,113.44,0,0,1-12.86-20.07h-3.57v38.58H113v-100h27.15v37.15h3.57l26.57-37.15h31.43l-34.15,49A195.15,195.15,0,0,0,184.73,184.72Z"/><path class="cls-2" d="M234.52,205.94a51.84,51.84,0,0,1-18.72-18.72,51.46,51.46,0,0,1,0-51.58,51.86,51.86,0,0,1,18.72-18.72,51.45,51.45,0,0,1,51.58,0,51.87,51.87,0,0,1,18.72,18.72,51.45,51.45,0,0,1,0,51.58,51.85,51.85,0,0,1-18.72,18.72,51.45,51.45,0,0,1-51.58,0Zm37.93-23.5a24.68,24.68,0,0,0,8.86-8.86,24.08,24.08,0,0,0,0-24.29,24.7,24.7,0,0,0-8.86-8.86,24.08,24.08,0,0,0-24.29,0,24.68,24.68,0,0,0-8.86,8.86,24.08,24.08,0,0,0,0,24.29,24.66,24.66,0,0,0,8.86,8.86,24.08,24.08,0,0,0,24.29,0Z"/><path class="cls-2" d="M389.68,116.22a35.5,35.5,0,0,1,13,13,36,36,0,0,1,0,35.86,35.47,35.47,0,0,1-13,13,35,35,0,0,1-17.93,4.79H356v28.58H328.89v-100h42.86A35,35,0,0,1,389.68,116.22Zm-12.72,39a11.43,11.43,0,0,0-8.07-19.5H356v22.86h12.86A11,11,0,0,0,377,155.22Z"/><path class="cls-2" d="M450.26,205.94a51.84,51.84,0,0,1-18.72-18.72,51.46,51.46,0,0,1,0-51.58,51.86,51.86,0,0,1,18.72-18.72,51.45,51.45,0,0,1,51.58,0,51.87,51.87,0,0,1,18.72,18.72,51.45,51.45,0,0,1,0,51.58,51.85,51.85,0,0,1-18.72,18.72,51.45,51.45,0,0,1-51.58,0Zm37.93-23.5a24.68,24.68,0,0,0,8.86-8.86,24.08,24.08,0,0,0,0-24.29,24.7,24.7,0,0,0-8.86-8.86,24.08,24.08,0,0,0-24.29,0,24.68,24.68,0,0,0-8.86,8.86,24.08,24.08,0,0,0,0,24.29,24.66,24.66,0,0,0,8.86,8.86,24.08,24.08,0,0,0,24.29,0Z"/><path class="cls-2" d="M554.77,181.44a17.23,17.23,0,0,0-9,2.57,21.19,21.19,0,0,0-7,6.79,16.45,16.45,0,0,0-2.71,9.07,12.54,12.54,0,0,0,3.79,9.22,12.72,12.72,0,0,0,9.36,3.79,17.61,17.61,0,0,0,9.07-2.57,21,21,0,0,0,7.07-6.79,16.23,16.23,0,0,0,2.71-8.93,12.78,12.78,0,0,0-3.71-9.43A13,13,0,0,0,554.77,181.44Z"/><polygon class="cls-2" points="571.92 111.43 552.77 111.43 543.2 174.29 568.92 174.29 571.92 159.11 571.92 111.43"/><path class="cls-2" d="M80.93,315.8A49.91,49.91,0,0,1,57,321.73a50.37,50.37,0,0,1-25.79-6.86,51.29,51.29,0,0,1-18.72-18.65,51.69,51.69,0,0,1-.07-51.58,51.3,51.3,0,0,1,18.65-18.72A49.71,49.71,0,0,1,56.71,219a51.62,51.62,0,0,1,24.15,5.79A49.28,49.28,0,0,1,99,240.72L76.85,256.43a24,24,0,0,0-8.5-7.5A25,25,0,0,0,57,246a23.74,23.74,0,0,0-12.29,3.29,24.12,24.12,0,0,0-8.79,8.86A24.58,24.58,0,0,0,36,282.58a24.66,24.66,0,0,0,8.86,8.86A23.46,23.46,0,0,0,57,294.72a25.16,25.16,0,0,0,11.29-2.93,24.34,24.34,0,0,0,8.57-7.36l22.29,15.43A52.52,52.52,0,0,1,80.93,315.8Z"/><path class="cls-2" d="M184.73,293.72q9.86,12,24.15,26.72H173.15a153.2,153.2,0,0,1-16.57-18.5,113.44,113.44,0,0,1-12.86-20.07h-3.57v38.58H113v-100h27.15v37.15h3.57l26.57-37.15h31.43l-34.15,49A195.15,195.15,0,0,0,184.73,293.72Z"/><path class="cls-2" d="M234.52,314.94a51.84,51.84,0,0,1-18.72-18.72,51.46,51.46,0,0,1,0-51.58,51.86,51.86,0,0,1,18.72-18.72,51.45,51.45,0,0,1,51.58,0,51.87,51.87,0,0,1,18.72,18.72,51.45,51.45,0,0,1,0,51.58,51.85,51.85,0,0,1-18.72,18.72,51.45,51.45,0,0,1-51.58,0Zm37.93-23.5a24.68,24.68,0,0,0,8.86-8.86,24.08,24.08,0,0,0,0-24.29,24.7,24.7,0,0,0-8.86-8.86,24.08,24.08,0,0,0-24.29,0,24.68,24.68,0,0,0-8.86,8.86,24.08,24.08,0,0,0,0,24.29,24.66,24.66,0,0,0,8.86,8.86,24.08,24.08,0,0,0,24.29,0Z"/><path class="cls-2" d="M389.68,225.22a35.5,35.5,0,0,1,13,13,36,36,0,0,1,0,35.86,35.47,35.47,0,0,1-13,13,35,35,0,0,1-17.93,4.79H356v28.58H328.89v-100h42.86A35,35,0,0,1,389.68,225.22Zm-12.72,39a11.43,11.43,0,0,0-8.07-19.5H356v22.86h12.86A11,11,0,0,0,377,264.22Z"/><path class="cls-2" d="M450.26,314.94a51.84,51.84,0,0,1-18.72-18.72,51.46,51.46,0,0,1,0-51.58,51.86,51.86,0,0,1,18.72-18.72,51.45,51.45,0,0,1,51.58,0,51.87,51.87,0,0,1,18.72,18.72,51.45,51.45,0,0,1,0,51.58,51.85,51.85,0,0,1-18.72,18.72,51.45,51.45,0,0,1-51.58,0Zm37.93-23.5a24.68,24.68,0,0,0,8.86-8.86,24.08,24.08,0,0,0,0-24.29,24.7,24.7,0,0,0-8.86-8.86,24.08,24.08,0,0,0-24.29,0,24.68,24.68,0,0,0-8.86,8.86,24.08,24.08,0,0,0,0,24.29,24.66,24.66,0,0,0,8.86,8.86,24.08,24.08,0,0,0,24.29,0Z"/><path class="cls-2" d="M554.77,290.44a17.23,17.23,0,0,0-9,2.57,21.19,21.19,0,0,0-7,6.79,16.45,16.45,0,0,0-2.71,9.07,12.54,12.54,0,0,0,3.79,9.22,12.72,12.72,0,0,0,9.36,3.79,17.61,17.61,0,0,0,9.07-2.57,21,21,0,0,0,7.07-6.79,16.23,16.23,0,0,0,2.71-8.93,12.78,12.78,0,0,0-3.71-9.43A13,13,0,0,0,554.77,290.44Z"/><polygon class="cls-2" points="571.92 220.43 552.77 220.43 543.2 283.29 568.92 283.29 571.92 268.11 571.92 220.43"/><path class="cls-2" d="M33,385a25.72,25.72,0,0,1-.27-3.7,23.88,23.88,0,0,1,3.21-12.14,24.12,24.12,0,0,1,8.79-8.86A23.74,23.74,0,0,1,57,357a25,25,0,0,1,11.36,2.93,24,24,0,0,1,8.5,7.5L99,351.72a49.28,49.28,0,0,0-18.15-15.93A51.62,51.62,0,0,0,56.71,330a49.71,49.71,0,0,0-25.65,6.93,51.3,51.3,0,0,0-18.65,18.72,50.37,50.37,0,0,0-6.86,25.79q0,1.8.12,3.55Z"/><path class="cls-2" d="M170.39,385c-1-1.52-1.9-3-2.81-4.55l34.15-49H170.3l-26.57,37.15h-3.57V331.43H113V385Z"/><path class="cls-2" d="M236.28,385a24.85,24.85,0,0,1-.26-3.55,23.47,23.47,0,0,1,3.29-12.14,24.68,24.68,0,0,1,8.86-8.86,24.08,24.08,0,0,1,24.29,0,24.7,24.7,0,0,1,8.86,8.86,23.49,23.49,0,0,1,3.29,12.14,24.83,24.83,0,0,1-.26,3.55h27.29q.11-1.76.12-3.55a50,50,0,0,0-6.93-25.79,51.87,51.87,0,0,0-18.72-18.72,51.45,51.45,0,0,0-51.58,0,51.86,51.86,0,0,0-18.72,18.72,50,50,0,0,0-6.93,25.79q0,1.8.12,3.55Z"/><path class="cls-2" d="M402.73,385a36,36,0,0,0,0-35.77,35.5,35.5,0,0,0-13-13,35,35,0,0,0-17.93-4.79H328.89V385ZM356,355.72h12.86a11.43,11.43,0,0,1,0,22.86H356Z"/><path class="cls-2" d="M452,385a24.86,24.86,0,0,1-.26-3.55A23.47,23.47,0,0,1,455,369.29a24.68,24.68,0,0,1,8.86-8.86,24.08,24.08,0,0,1,24.29,0,24.7,24.7,0,0,1,8.86,8.86,23.49,23.49,0,0,1,3.29,12.14,24.83,24.83,0,0,1-.26,3.55h27.29q.11-1.76.12-3.55a50,50,0,0,0-6.93-25.79,51.87,51.87,0,0,0-18.72-18.72,51.45,51.45,0,0,0-51.58,0,51.86,51.86,0,0,0-18.72,18.72,50,50,0,0,0-6.93,25.79q0,1.8.12,3.55Z"/><polygon class="cls-2" points="571.92 331.43 552.77 331.43 544.62 384.99 570.76 384.99 571.92 379.11 571.92 331.43"/></g></g></svg>